<svg width="26" height="26" viewBox="0 0 26 26" fill="none" xmlns="http://www.w3.org/2000/svg">
<path d="M22.5264 17.8689C21.9627 16.898 21.1248 14.1507 21.1248 10.5625C21.1248 8.40762 20.2688 6.34099 18.745 4.81726C17.2213 3.29352 15.1547 2.4375 12.9998 2.4375C10.8449 2.4375 8.77829 3.29352 7.25456 4.81726C5.73082 6.34099 4.8748 8.40762 4.8748 10.5625C4.8748 14.1517 4.03589 16.898 3.47222 17.8689C3.32828 18.1157 3.25197 18.3962 3.25099 18.6819C3.25001 18.9677 3.32439 19.2486 3.46663 19.4964C3.60888 19.7443 3.81396 19.9502 4.06119 20.0935C4.30842 20.2367 4.58905 20.3123 4.8748 20.3125H9.01957C9.20702 21.2298 9.70554 22.0541 10.4308 22.6462C11.1561 23.2382 12.0636 23.5616 12.9998 23.5616C13.936 23.5616 14.8435 23.2382 15.5688 22.6462C16.2941 22.0541 16.7926 21.2298 16.98 20.3125H21.1248C21.4105 20.3121 21.691 20.2364 21.9381 20.0931C22.1851 19.9497 22.3901 19.7438 22.5322 19.496C22.6743 19.2482 22.7486 18.9673 22.7476 18.6817C22.7466 18.396 22.6703 18.1157 22.5264 17.8689ZM12.9998 21.9375C12.4959 21.9373 12.0044 21.781 11.593 21.49C11.1815 21.199 10.8704 20.7876 10.7025 20.3125H15.2971C15.1292 20.7876 14.8181 21.199 14.4066 21.49C13.9952 21.781 13.5037 21.9373 12.9998 21.9375ZM4.8748 18.6875C5.65683 17.3428 6.4998 14.2269 6.4998 10.5625C6.4998 8.83859 7.18462 7.18529 8.40361 5.96631C9.62259 4.74732 11.2759 4.0625 12.9998 4.0625C14.7237 4.0625 16.377 4.74732 17.596 5.96631C18.815 7.18529 19.4998 8.83859 19.4998 10.5625C19.4998 14.2238 20.3407 17.3398 21.1248 18.6875H4.8748Z" fill="#20712D"/>
</svg>
