<svg width="1400" height="437" viewBox="0 0 1400 437" fill="none" xmlns="http://www.w3.org/2000/svg">
<rect width="1400" height="433" rx="20" fill="#A8FFB6" fill-opacity="0.49"/>
<g clip-path="url(#clip0_627_264)">
<path d="M1400 285L1341.67 266C1283.33 247 1166.67 209 1050 202.7C933.333 196 816.667 222 700 247C583.333 272 466.667 298 350 266C233.333 234 116.667 146 0 158.3C-116.667 171 -233.333 285 -350 310.3C-466.667 336 -583.333 272 -700 259.7C-816.667 247 -933.333 285 -1050 316.7C-1166.67 348 -1283.33 374 -1400 367.3C-1516.67 361 -1633.33 323 -1750 266C-1866.67 209 -1983.33 133 -2100 126.7C-2216.67 120 -2333.33 184 -2450 196.3C-2566.67 209 -2683.33 171 -2800 196.3C-2916.67 222 -3033.33 310 -3150 297.7C-3266.67 285 -3383.33 171 -3500 164.7C-3616.67 158 -3733.33 260 -3850 297.7C-3966.67 336 -4083.33 310 -4200 304C-4316.67 298 -4433.33 310 -4550 316.7C-4666.67 323 -4783.33 323 -4900 310.3C-5016.67 298 -5133.33 272 -5250 278.7C-5366.67 285 -5483.33 323 -5600 329.3C-5716.67 336 -5833.33 310 -5950 278.7C-6066.67 247 -6183.33 209 -6300 209C-6416.67 209 -6533.33 247 -6650 253.3C-6766.67 260 -6883.33 234 -6941.67 221.7L-7000 209V437H-6941.67C-6883.33 437 -6766.67 437 -6650 437C-6533.33 437 -6416.67 437 -6300 437C-6183.33 437 -6066.67 437 -5950 437C-5833.33 437 -5716.67 437 -5600 437C-5483.33 437 -5366.67 437 -5250 437C-5133.33 437 -5016.67 437 -4900 437C-4783.33 437 -4666.67 437 -4550 437C-4433.33 437 -4316.67 437 -4200 437C-4083.33 437 -3966.67 437 -3850 437C-3733.33 437 -3616.67 437 -3500 437C-3383.33 437 -3266.67 437 -3150 437C-3033.33 437 -2916.67 437 -2800 437C-2683.33 437 -2566.67 437 -2450 437C-2333.33 437 -2216.67 437 -2100 437C-1983.33 437 -1866.67 437 -1750 437C-1633.33 437 -1516.67 437 -1400 437C-1283.33 437 -1166.67 437 -1050 437C-933.333 437 -816.667 437 -700 437C-583.333 437 -466.667 437 -350 437C-233.333 437 -116.667 437 0 437C116.667 437 233.333 437 350 437C466.667 437 583.333 437 700 437C816.667 437 933.333 437 1050 437C1166.67 437 1283.33 437 1341.67 437H1400V285Z" fill="#00E125" fill-opacity="0.96"/>
</g>
<defs>
<clipPath id="clip0_627_264">
<rect width="1400" height="380" rx="20" transform="matrix(-1 0 0 1 1400 57)" fill="white"/>
</clipPath>
</defs>
</svg>
