<svg width="26" height="26" viewBox="0 0 26 26" fill="none" xmlns="http://www.w3.org/2000/svg">
<path d="M21.6998 10.3248L13.5748 18.4498C13.4993 18.5254 13.4097 18.5853 13.3111 18.6262C13.2125 18.6671 13.1067 18.6881 13 18.6881C12.8932 18.6881 12.7875 18.6671 12.6888 18.6262C12.5902 18.5853 12.5006 18.5254 12.4251 18.4498L4.30012 10.3248C4.14766 10.1723 4.06201 9.96557 4.06201 9.74996C4.06201 9.53436 4.14766 9.32758 4.30012 9.17512C4.45258 9.02266 4.65936 8.93701 4.87496 8.93701C5.09057 8.93701 5.29735 9.02266 5.44981 9.17512L13 16.7263L20.5501 9.17512C20.6256 9.09963 20.7152 9.03975 20.8139 8.99889C20.9125 8.95804 21.0182 8.93701 21.125 8.93701C21.2317 8.93701 21.3374 8.95804 21.4361 8.99889C21.5347 9.03975 21.6243 9.09963 21.6998 9.17512C21.7753 9.25061 21.8352 9.34023 21.876 9.43886C21.9169 9.53749 21.9379 9.64321 21.9379 9.74996C21.9379 9.85672 21.9169 9.96244 21.876 10.0611C21.8352 10.1597 21.7753 10.2493 21.6998 10.3248Z" fill="#7E8082" fill-opacity="0.5"/>
</svg>
