<svg width="541" height="393" viewBox="0 0 541 393" fill="none" xmlns="http://www.w3.org/2000/svg">
<path d="M109.106 33.9649C111.916 64.945 119.923 97.6117 132.479 129.131C148.007 168.108 169.222 202.44 193.831 228.413L195.197 227.221C170.707 201.373 149.588 167.193 134.125 128.377C120.151 93.2995 111.839 56.7961 110.077 22.8291L108.332 23.1214C108.517 26.7088 108.775 30.3233 109.106 33.9649Z" fill="#F2F2F2"/>
<path d="M97.9131 213.891C132.478 268.909 174.413 308.22 215.994 324.58L216.835 323.038C175.542 306.79 133.853 267.681 99.4455 212.914L97.9131 213.891Z" fill="#F2F2F2"/>
<path d="M109.945 72.5364C112.756 103.516 120.762 136.183 133.319 167.702C148.846 206.68 170.061 241.011 194.67 266.984L196.036 265.793C171.546 239.944 150.428 205.765 134.965 166.948C120.99 131.871 112.678 95.3675 110.916 61.4005L109.171 61.6928C109.356 65.2802 109.614 68.8947 109.945 72.5364Z" fill="#F2F2F2"/>
<path d="M497.982 152.071H520.661C521.146 152.072 521.624 151.964 522.061 151.753C522.497 151.543 522.881 151.236 523.182 150.857C523.479 150.487 523.689 150.054 523.796 149.591C523.902 149.128 523.903 148.647 523.797 148.184C521.637 138.649 521.773 128.737 524.193 119.264C524.346 118.641 524.309 117.985 524.087 117.383C523.864 116.78 523.467 116.258 522.945 115.884C511.284 107.492 502.1 107.736 495.649 116.609C495.358 117.013 495.165 117.479 495.084 117.971C493.361 128.339 493.265 138.912 494.802 149.309C494.908 150.077 495.289 150.779 495.874 151.287C496.459 151.795 497.208 152.074 497.982 152.071Z" fill="#E6E6E6"/>
<path d="M505.013 129.349H512.815C513.246 129.349 513.66 129.178 513.965 128.873C514.27 128.567 514.441 128.153 514.441 127.722C514.441 127.29 514.27 126.876 513.965 126.571C513.66 126.266 513.246 126.094 512.815 126.094H505.013C504.582 126.095 504.17 126.267 503.865 126.572C503.561 126.877 503.39 127.291 503.39 127.722C503.39 128.153 503.561 128.566 503.865 128.871C504.17 129.176 504.582 129.348 505.013 129.349Z" fill="white"/>
<path d="M505.013 135.057H512.815C513.246 135.057 513.66 134.885 513.965 134.58C514.27 134.275 514.441 133.861 514.441 133.429C514.441 132.998 514.27 132.584 513.965 132.279C513.66 131.973 513.246 131.802 512.815 131.802H505.013C504.582 131.803 504.17 131.975 503.865 132.28C503.561 132.585 503.39 132.998 503.39 133.429C503.39 133.86 503.561 134.274 503.865 134.579C504.17 134.884 504.582 135.056 505.013 135.057Z" fill="white"/>
<path d="M505.013 140.764H512.815C513.246 140.764 513.66 140.593 513.965 140.288C514.27 139.982 514.441 139.568 514.441 139.137C514.441 138.705 514.27 138.291 513.965 137.986C513.66 137.681 513.246 137.509 512.815 137.509H505.013C504.582 137.51 504.17 137.682 503.865 137.987C503.561 138.292 503.39 138.706 503.39 139.137C503.39 139.568 503.561 139.981 503.865 140.286C504.17 140.592 504.582 140.763 505.013 140.764Z" fill="white"/>
<path d="M85.8163 253.38H108.495C108.98 253.381 109.458 253.273 109.895 253.062C110.331 252.852 110.714 252.545 111.016 252.166C111.313 251.796 111.523 251.363 111.63 250.9C111.736 250.437 111.737 249.956 111.631 249.493C109.471 239.958 109.607 230.046 112.027 220.573C112.18 219.949 112.143 219.294 111.921 218.692C111.698 218.089 111.301 217.567 110.779 217.193C99.1178 208.801 89.9339 209.045 83.4827 217.918C83.1919 218.322 82.9987 218.788 82.9183 219.28C81.1946 229.648 81.0992 240.221 82.6356 250.618C82.7423 251.386 83.1235 252.088 83.7082 252.596C84.293 253.104 85.0419 253.382 85.8163 253.38Z" fill="#E6E6E6"/>
<path d="M92.8472 230.658H100.649C101.08 230.657 101.492 230.485 101.797 230.18C102.101 229.875 102.272 229.462 102.272 229.031C102.272 228.6 102.101 228.186 101.797 227.881C101.492 227.576 101.08 227.404 100.649 227.403H92.8472C92.4158 227.403 92.002 227.575 91.697 227.88C91.3919 228.185 91.2206 228.599 91.2206 229.031C91.2206 229.462 91.3919 229.876 91.697 230.181C92.002 230.487 92.4158 230.658 92.8472 230.658Z" fill="white"/>
<path d="M92.8472 236.366H100.649C101.08 236.365 101.492 236.193 101.797 235.888C102.101 235.583 102.272 235.169 102.272 234.738C102.272 234.307 102.101 233.894 101.797 233.589C101.492 233.283 101.08 233.112 100.649 233.111H92.8472C92.4158 233.111 92.002 233.282 91.697 233.587C91.3919 233.893 91.2206 234.307 91.2206 234.738C91.2206 235.17 91.3919 235.584 91.697 235.889C92.002 236.194 92.4158 236.366 92.8472 236.366Z" fill="white"/>
<path d="M92.8472 242.073H100.649C101.08 242.072 101.492 241.9 101.797 241.595C102.101 241.29 102.272 240.877 102.272 240.446C102.272 240.015 102.101 239.601 101.797 239.296C101.492 238.991 101.08 238.819 100.649 238.818H92.8472C92.4158 238.818 92.002 238.99 91.697 239.295C91.3919 239.6 91.2206 240.014 91.2206 240.446C91.2206 240.877 91.3919 241.291 91.697 241.596C92.002 241.902 92.4158 242.073 92.8472 242.073Z" fill="white"/>
<path d="M0 392.151C-0.000305176 392.263 0.0214233 392.373 0.0639648 392.476C0.106506 392.58 0.169006 392.673 0.247864 392.752C0.326721 392.831 0.42041 392.894 0.523499 392.936C0.626648 392.979 0.737122 393 0.848633 393H540.151C540.376 393 540.592 392.911 540.751 392.751C540.911 392.592 541 392.376 541 392.151C541 391.926 540.911 391.71 540.751 391.551C540.592 391.391 540.376 391.302 540.151 391.302H0.848572C0.737061 391.302 0.626587 391.323 0.523499 391.366C0.420349 391.409 0.326721 391.471 0.247864 391.55C0.169006 391.629 0.106506 391.723 0.0639648 391.826C0.0214233 391.929 -0.000305176 392.039 0 392.151Z" fill="#CCCCCC"/>
<path d="M398.736 340.169L400.151 320.487C409.416 315.853 419.672 313.552 430.028 313.783C415.459 325.051 416.626 347.57 406.535 362.982C403.352 367.765 399.133 371.769 394.192 374.699C389.251 377.628 383.714 379.408 377.992 379.906L365.867 386.885C364.48 377.713 365.097 368.349 367.675 359.439C370.253 350.528 374.732 342.283 380.802 335.27C384.246 331.37 388.168 327.92 392.474 325C395.124 332.613 398.736 340.169 398.736 340.169Z" fill="#F2F2F2"/>
<path d="M142.264 343.023L140.85 323.34C131.584 318.706 121.328 316.405 110.972 316.637C125.542 327.904 124.375 350.424 134.465 365.836C137.649 370.618 141.867 374.623 146.809 377.553C151.75 380.482 157.286 382.262 163.008 382.76L175.134 389.739C176.521 380.567 175.904 371.203 173.325 362.292C170.747 353.382 166.269 345.136 160.199 338.124C156.754 334.224 152.833 330.774 148.527 327.854C145.876 335.467 142.264 343.023 142.264 343.023Z" fill="#F2F2F2"/>
<path d="M276.918 120.904C269.435 120.904 263.369 114.835 263.369 107.349C263.369 99.8625 269.435 93.7936 276.918 93.7936C284.4 93.7936 290.466 99.8625 290.466 107.349C290.466 114.835 284.4 120.904 276.918 120.904Z" fill="#00E125"/>
<path d="M269.963 101.7C270.167 101.505 270.437 101.396 270.719 101.396C271.001 101.396 271.272 101.505 271.475 101.7C274.35 103.994 276.932 106.632 279.164 109.557C279.712 108.496 280.259 107.436 280.807 106.375C281.44 105.151 283.286 106.232 282.654 107.455C281.853 109.007 281.052 110.558 280.251 112.109C280.154 112.267 280.018 112.398 279.857 112.489C279.695 112.579 279.513 112.627 279.327 112.627C279.142 112.627 278.959 112.579 278.798 112.489C278.636 112.398 278.5 112.267 278.403 112.109C276.026 108.758 273.184 105.763 269.963 103.213C269.764 103.011 269.652 102.74 269.652 102.456C269.652 102.173 269.764 101.901 269.963 101.7Z" fill="white"/>
<path d="M337.542 145.787L357.973 113.685L334.314 101.009L328.104 125.501L284.352 149.155C282.625 148.533 280.754 148.427 278.968 148.851C277.182 149.274 275.557 150.209 274.292 151.54C273.027 152.871 272.177 154.542 271.845 156.348C271.513 158.155 271.713 160.019 272.422 161.713C273.13 163.408 274.316 164.859 275.835 165.891C277.354 166.923 279.14 167.49 280.975 167.524C282.811 167.558 284.616 167.056 286.172 166.081C287.728 165.106 288.966 163.699 289.736 162.032L337.542 145.787Z" fill="#A0616A"/>
<path d="M372.9 75.1824C379.319 84.6124 356.506 118.89 356.506 118.89C355.394 116.493 344.771 143.408 342.991 141.818C337.934 137.299 330.017 124.712 325.617 124.151C323.1 123.83 331.453 105.974 331.453 105.974C331.453 105.974 335.271 95.4296 340.451 81.9603C341.845 78.1251 344.186 74.7052 347.257 72.0188C350.327 69.3324 354.027 67.4669 358.012 66.596C358.012 66.596 366.48 65.7524 372.9 75.1824Z" fill="#3F3D56"/>
<path d="M372.586 382.416L362.883 382.415L358.267 344.97L372.588 344.971L372.586 382.416Z" fill="#A0616A"/>
<path d="M375.062 379.246L372.33 379.246L361.667 374.908L355.953 379.245H355.952C352.722 379.246 349.625 380.529 347.341 382.814C345.057 385.099 343.774 388.198 343.774 391.429V391.825L375.061 391.826L375.062 379.246Z" fill="#2F2E41"/>
<path d="M327.507 382.416L317.804 382.415L313.188 344.97L327.509 344.971L327.507 382.416Z" fill="#A0616A"/>
<path d="M329.982 379.246L327.251 379.246L316.588 374.908L310.873 379.245H310.873C307.643 379.246 304.546 380.529 302.262 382.814C299.978 385.099 298.695 388.198 298.695 391.429V391.825L329.982 391.826L329.982 379.246Z" fill="#2F2E41"/>
<path d="M323.307 177.701L386.421 179.28C398.407 185.794 398.589 199.892 394.662 216.63C394.662 216.63 395.988 226.579 393.336 229.232C390.684 231.885 389.358 231.885 390.684 236.528C392.01 241.171 385.005 248.754 385.856 249.605C386.707 250.456 388.695 255.099 388.695 255.099L382.066 292.905C382.066 292.905 377.426 358.567 376.1 359.893C374.774 361.22 373.448 359.893 374.774 363.21C376.1 366.526 377.426 365.2 376.1 366.526C374.925 367.793 373.819 369.121 372.785 370.506H356.757C356.757 370.506 355.549 363.873 355.549 363.21C355.549 362.546 354.223 358.567 354.223 357.904C354.223 357.24 355.395 356.068 355.395 356.068C355.8 354.72 356.074 353.335 356.212 351.934C356.212 350.608 360.19 299.537 360.19 299.537L352.234 233.212L333.01 298.211C333.01 298.211 333.01 355.251 331.684 356.577C330.358 357.904 330.358 357.24 331.021 359.893C331.684 362.547 334.335 361.883 332.347 363.873C330.358 365.863 329.695 362.547 330.358 365.863L331.021 369.179L311.133 369.464C311.133 369.464 308.481 363.873 309.807 361.883C311.133 359.894 311.053 360.437 309.436 357.18C307.818 353.924 307.155 353.261 307.818 352.598C308.481 351.934 308.481 348.407 308.481 348.407L311.796 284.946C311.796 284.946 312.459 217.957 312.459 215.967C312.509 214.943 312.32 213.922 311.908 212.983V210.282L314.448 200.712L323.307 177.701Z" fill="#2F2E41"/>
<path d="M361.22 46.4015C350.39 46.4015 341.611 37.6176 341.611 26.7821C341.611 15.9465 350.39 7.1626 361.22 7.1626C372.05 7.1626 380.83 15.9465 380.83 26.7821C380.83 37.6176 372.05 46.4015 361.22 46.4015Z" fill="#A0616A"/>
<path d="M351.415 59.3685C347.191 61.8813 344.664 66.4983 343.213 71.1965C340.527 79.8946 338.91 88.8876 338.399 97.9769L336.866 125.189L317.889 183.13C334.336 197.053 396.157 186.294 396.157 186.294C396.157 186.294 398.055 185.662 396.157 183.763C394.26 181.864 392.412 183.546 394.31 181.648C396.208 179.749 394.899 181.864 394.267 179.966C393.634 178.067 394.267 179.333 394.899 178.7C395.532 178.067 390.002 172.371 390.002 172.371L395.063 139.112L401.389 72.0262C393.798 62.5329 378.532 56.9367 378.532 56.9367L374.587 49.8329L354.864 51.4115L351.415 59.3685Z" fill="#3F3D56"/>
<path d="M345.055 16.3585C343.531 17.4958 342.402 19.0828 341.827 20.8959C341.606 17.9329 341.592 14.958 341.785 11.993C342.016 9.90953 343.482 9.44087 345.179 8.89783C346.713 8.40721 348.446 7.85301 348.913 5.8304C355.077 -0.169209 365.808 0.133332 373.151 2.22609C377.192 3.37768 379.518 4.85726 379.726 5.72402L379.769 5.90247L379.933 5.98456C383.048 7.54275 383.654 12.4632 383.614 16.3165C383.538 23.5764 381.033 31.8218 379.621 32.4916C379.546 32.527 379.528 32.5132 379.495 32.4862C377.37 30.7869 374.777 32.6153 373.638 33.6093C372.966 29.0971 370.802 24.9405 367.491 21.8031C364.181 18.6658 359.915 16.7288 355.376 16.3015C353.893 16.1581 352.422 15.9114 350.974 15.5631C350.24 15.373 349.485 15.2738 348.726 15.2679C347.42 15.248 346.139 15.6286 345.055 16.3585Z" fill="#2F2E41"/>
<path d="M223.32 193.334L185.598 155.01L175.66 124.358L191.653 117.886C199.576 125.881 207.731 150.358 207.731 150.358L233.478 184.93C233.684 185.007 233.889 185.087 234.091 185.183C235.276 185.743 236.297 186.599 237.055 187.669C237.813 188.74 238.282 189.987 238.417 191.292C238.552 192.596 238.349 193.913 237.826 195.116C237.304 196.319 236.48 197.367 235.434 198.158C234.389 198.949 233.157 199.457 231.858 199.633C230.559 199.809 229.237 199.646 228.019 199.162C226.801 198.677 225.729 197.885 224.906 196.865C224.083 195.844 223.537 194.628 223.32 193.334Z" fill="#FFB8B8"/>
<path d="M196.016 121.392L175.79 127.246L175.715 127.231C168.28 125.787 162.399 113.426 158.775 103.31C157.583 99.974 157.702 96.3092 159.107 93.0568C160.512 89.8044 163.099 87.2071 166.345 85.79C168.746 84.7608 171.387 84.4242 173.97 84.8182C176.553 85.2122 178.974 86.3211 180.96 88.0196L191.044 96.7074L196.016 121.392Z" fill="#00E125"/>
<path d="M213.32 381.277L224.198 381.276L229.372 339.301L213.319 339.302L213.32 381.277Z" fill="#FFB8B8"/>
<path d="M210.545 377.724L213.607 377.724L225.56 372.86L231.967 377.723H231.967C235.588 377.723 239.06 379.162 241.62 381.724C244.18 384.285 245.618 387.759 245.619 391.381V391.825L210.546 391.826L210.545 377.724Z" fill="#2F2E41"/>
<path d="M165.056 381.277L175.934 381.276L181.108 339.301L165.054 339.302L165.056 381.277Z" fill="#FFB8B8"/>
<path d="M162.281 377.724L165.343 377.724L177.296 372.86L183.702 377.723H183.703C187.324 377.723 190.796 379.162 193.356 381.724C195.916 384.285 197.354 387.759 197.354 391.381V391.825L162.282 391.826L162.281 377.724Z" fill="#2F2E41"/>
<path d="M148.471 200.473C148.471 200.473 147.201 215.722 150.376 230.335C153.551 244.948 153.551 286.105 153.551 286.105L160.537 366.304L181.493 364.398L187.209 230.335L207.531 275.446L205.626 281.8L208.163 283.388C208.163 283.388 206.261 295.778 207.531 295.778C208.801 295.778 211.976 297.684 211.976 297.684L209.436 363.127L231.028 362.492L238.648 270.363L230.393 217.628L229.758 207.462L226.9 207.579L225.445 203.332L222.772 196.025L148.471 200.473Z" fill="#2F2E41"/>
<path d="M147.373 203.676L147.26 203.517C141.215 195.05 150.306 174.704 151.677 171.754L145.902 169.879L147.203 158.819L147.819 153.888L143.405 149.472L143.392 149.362L140.852 127.124L137.159 112.353C135.767 106.77 135.886 100.916 137.502 95.3935C139.119 89.8709 142.175 84.8781 146.358 80.9278L154.895 72.8743L165.271 57.5148H182.002L187.739 68.3564C193.301 69.6425 198.236 72.8401 201.684 77.3921C205.132 81.9441 206.874 87.5621 206.608 93.2673L205.308 121.702L210.398 157.105L210.401 163.512L216.129 169.881L214.878 176.138L219.238 178.007L221.163 186.994C221.959 188.046 227.217 195.061 227.217 196.978C227.217 197.266 227.005 197.544 226.549 197.853C222.966 200.281 203.16 205.23 194.394 201.721C185.057 197.985 147.94 203.589 147.566 203.646L147.373 203.676Z" fill="#00E125"/>
<path d="M175.798 52.5564C163.56 52.5564 153.639 42.6306 153.639 30.3865C153.639 18.1425 163.56 8.21667 175.798 8.21667C188.036 8.21667 197.957 18.1425 197.957 30.3865C197.957 42.6306 188.036 52.5564 175.798 52.5564Z" fill="#FFB8B8"/>
<path d="M177.92 52.9154C174.489 52.8803 171.066 52.552 167.69 51.9341C164.348 51.1638 156.974 45.4591 154.965 42.089C153.472 39.585 152.576 35.712 152.087 32.9041C151.426 29.1879 151.554 25.3744 152.46 21.7106C153.366 18.0468 155.032 14.6143 157.349 11.6353C158.242 10.3874 159.455 9.4041 160.861 8.78952C160.985 8.74454 161.113 8.70514 161.242 8.67195C163.28 8.19145 165.127 7.11259 166.548 5.57388C166.823 5.26236 167.121 4.97112 167.439 4.70241C169.032 3.42604 170.905 2.54505 172.904 2.13147C176.133 1.35557 180.752 2.32787 186.633 5.02383C189.588 6.37833 192.867 6.00046 195.394 5.5199C195.536 5.4963 195.681 5.51023 195.816 5.56031C195.951 5.61038 196.07 5.69486 196.162 5.80533C197.205 6.83736 198.6 7.43599 200.067 7.48092C200.964 7.54359 201.875 8.81246 202.972 10.4648C203.221 10.8399 203.512 11.2776 203.723 11.5447L203.765 11.0431L204.258 11.6167C205.034 12.5182 205.57 13.6016 205.815 14.7659C206.06 15.9302 206.006 17.1376 205.659 18.2756C205.312 19.4136 204.683 20.4453 203.83 21.2745C202.977 22.1037 201.928 22.7034 200.781 23.018C199.871 23.2352 198.942 23.3589 198.007 23.3871C197.44 23.4234 196.854 23.461 196.29 23.5438C194.482 23.866 192.787 24.6519 191.373 25.8248C189.958 26.9977 188.872 28.5176 188.22 30.236C188.066 30.6331 187.822 30.9895 187.509 31.2777C187.195 31.5659 186.82 31.7781 186.411 31.898C186.003 32.018 185.572 32.0424 185.153 31.9694C184.733 31.8963 184.336 31.7279 183.992 31.4769C183.42 31.0069 182.742 30.6823 182.018 30.5308C181.293 30.3793 180.542 30.4055 179.83 30.607C179.21 30.9311 178.721 31.4584 178.444 32.1005C178.109 32.8153 177.568 33.4139 176.892 33.8202C174.585 34.9358 174.294 40.1345 174.999 44.4927C175.68 48.6936 177.16 51.7582 178.598 51.9449C179.706 52.0886 179.831 52.1708 179.906 52.3694L179.974 52.5471L179.845 52.7085C179.226 52.9151 178.569 52.9857 177.92 52.9154Z" fill="#2F2E41"/>
<path d="M196.305 123.763L206.956 110.185C217.805 113.174 237.056 130.341 237.056 130.341L276.591 147.506C277.91 147.285 279.265 147.414 280.519 147.883C281.772 148.351 282.88 149.142 283.731 150.175C284.582 151.208 285.146 152.447 285.366 153.768C285.586 155.088 285.455 156.443 284.985 157.697C284.515 158.95 283.724 160.058 282.69 160.908C281.656 161.758 280.417 162.321 279.097 162.54C277.777 162.758 276.423 162.625 275.17 162.154C273.918 161.682 272.812 160.889 271.964 159.854L220.174 145.398L196.305 123.763Z" fill="#FFB8B8"/>
<path d="M198.857 126.867L182.051 108.123L181.118 94.8417C180.944 92.2337 181.503 89.629 182.732 87.3221C183.96 85.0151 185.808 83.0979 188.069 81.787C191.145 80.0305 194.772 79.5082 198.218 80.3255C201.664 81.1428 204.672 83.2388 206.632 86.1897C212.57 95.1439 218.959 107.25 215.672 114.076L215.638 114.145L198.857 126.867Z" fill="#00E125"/>
<path d="M353.758 197.32L397.437 174.938C400.544 173.346 401.574 169.123 399.732 165.525L371.251 109.888C369.409 106.29 365.383 104.657 362.276 106.249L318.596 128.631C315.489 130.223 314.46 134.446 316.302 138.044L344.782 193.681C346.624 197.279 350.651 198.912 353.758 197.32Z" fill="#E6E6E6"/>
<path d="M361.221 187.031L390.897 171.824C393.807 170.333 394.771 166.378 393.046 163.008L369.385 116.786C367.66 113.416 363.889 111.888 360.979 113.379L325.136 131.745C322.226 133.236 321.262 137.19 322.987 140.56L335.841 165.671C343.525 180.682 348.259 193.672 361.221 187.031Z" fill="white"/>
<path d="M346.548 161.789L372.833 148.32C373.155 148.091 373.383 147.754 373.477 147.37C373.57 146.986 373.523 146.582 373.343 146.231C373.163 145.879 372.863 145.604 372.497 145.456C372.131 145.308 371.724 145.296 371.351 145.423L345.065 158.892C344.744 159.121 344.515 159.458 344.422 159.842C344.328 160.225 344.376 160.63 344.556 160.981C344.736 161.332 345.036 161.607 345.402 161.756C345.767 161.904 346.174 161.916 346.548 161.789Z" fill="#00E125"/>
<path d="M369.765 157.117L375.763 154.043C376.085 153.814 376.313 153.477 376.406 153.094C376.5 152.71 376.452 152.305 376.272 151.954C376.092 151.603 375.792 151.328 375.426 151.179C375.061 151.031 374.654 151.019 374.28 151.146L368.282 154.22C367.96 154.449 367.732 154.786 367.638 155.17C367.545 155.554 367.592 155.958 367.772 156.309C367.952 156.661 368.252 156.936 368.618 157.084C368.984 157.232 369.391 157.244 369.765 157.117Z" fill="#00E125"/>
<path d="M362.07 168.285L378.693 159.767C379.014 159.538 379.243 159.201 379.336 158.817C379.43 158.433 379.382 158.029 379.202 157.678C379.022 157.326 378.722 157.051 378.356 156.903C377.99 156.755 377.584 156.743 377.21 156.87L360.587 165.387C360.266 165.617 360.037 165.954 359.944 166.337C359.85 166.721 359.898 167.125 360.078 167.477C360.258 167.828 360.558 168.103 360.924 168.252C361.289 168.4 361.696 168.412 362.07 168.285Z" fill="#00E125"/>
<path d="M336.146 141.468L362.432 128C362.753 127.771 362.981 127.433 363.075 127.05C363.168 126.666 363.121 126.262 362.941 125.91C362.761 125.559 362.461 125.284 362.095 125.136C361.729 124.987 361.322 124.976 360.949 125.103L334.663 138.571C334.342 138.801 334.113 139.138 334.02 139.521C333.926 139.905 333.974 140.309 334.154 140.661C334.334 141.012 334.634 141.287 335 141.435C335.366 141.584 335.772 141.595 336.146 141.468Z" fill="#00E125"/>
<path d="M359.363 136.797L365.361 133.723C365.683 133.494 365.911 133.157 366.004 132.773C366.098 132.39 366.05 131.985 365.871 131.634C365.691 131.282 365.39 131.007 365.025 130.859C364.659 130.711 364.252 130.699 363.878 130.826L357.88 133.9C357.558 134.129 357.33 134.466 357.237 134.85C357.143 135.233 357.191 135.638 357.37 135.989C357.55 136.341 357.851 136.616 358.216 136.764C358.582 136.912 358.989 136.924 359.363 136.797Z" fill="#00E125"/>
<path d="M351.668 147.964L368.291 139.447C368.612 139.218 368.841 138.88 368.934 138.497C369.028 138.113 368.98 137.709 368.8 137.357C368.62 137.006 368.32 136.731 367.954 136.583C367.589 136.434 367.182 136.423 366.808 136.55L350.185 145.067C349.864 145.296 349.635 145.634 349.542 146.017C349.448 146.401 349.496 146.805 349.676 147.157C349.856 147.508 350.156 147.783 350.522 147.931C350.888 148.08 351.294 148.091 351.668 147.964Z" fill="#00E125"/>
<path d="M389.953 148.882L399.821 112.128L373.451 107.133L374.869 132.361L340.222 168.055C338.388 167.98 336.571 168.44 334.994 169.38C333.417 170.32 332.147 171.699 331.34 173.348C330.532 174.998 330.222 176.847 330.446 178.67C330.671 180.493 331.421 182.211 332.605 183.615C333.789 185.018 335.355 186.047 337.113 186.576C338.871 187.104 340.745 187.11 342.506 186.591C344.267 186.073 345.84 185.053 347.031 183.655C348.223 182.258 348.983 180.545 349.218 178.723L389.953 148.882Z" fill="#A0616A"/>
<path d="M402.519 70.9181C411.47 77.9879 399.982 117.533 399.982 117.533C398.203 115.58 396.136 144.444 393.962 143.461C387.783 140.667 376.458 131.035 372.092 131.82C369.595 132.269 372.211 112.728 372.211 112.728C372.211 112.728 372.692 101.524 373.596 87.1204C373.776 83.0435 374.984 79.0785 377.108 75.5945C379.232 72.1105 382.202 69.2207 385.743 67.1942C385.743 67.1942 393.569 63.8484 402.519 70.9181Z" fill="#3F3D56"/>
<path d="M253.586 230.462L277.422 219.201C277.932 218.961 278.381 218.61 278.735 218.172C279.09 217.734 279.341 217.221 279.469 216.673C279.598 216.136 279.604 215.577 279.486 215.038C279.369 214.498 279.131 213.993 278.79 213.559C271.885 204.73 267.144 194.405 264.947 183.413C264.781 182.571 264.328 181.813 263.666 181.268C263.004 180.723 262.173 180.424 261.315 180.423C249.159 180.465 240.073 184.906 234.312 193.622C234.008 194.075 233.807 194.589 233.722 195.128C233.637 195.667 233.671 196.219 233.821 196.743C237.157 208.247 242.233 219.172 248.873 229.138C249.366 229.892 250.115 230.441 250.982 230.684C251.848 230.928 252.773 230.849 253.586 230.462Z" fill="#E6E6E6"/>
<path d="M246.574 214.668L264.799 206.057C265.253 205.843 265.603 205.457 265.772 204.985C265.941 204.513 265.916 203.993 265.702 203.539C265.488 203.085 265.102 202.736 264.63 202.566C264.158 202.397 263.638 202.422 263.185 202.636L244.96 211.247C244.735 211.353 244.534 211.502 244.367 211.686C244.2 211.87 244.071 212.085 243.987 212.319C243.903 212.553 243.867 212.801 243.879 213.049C243.891 213.297 243.951 213.54 244.057 213.765C244.163 213.99 244.313 214.191 244.496 214.358C244.68 214.525 244.895 214.654 245.129 214.738C245.363 214.822 245.611 214.859 245.859 214.847C246.107 214.835 246.35 214.774 246.574 214.668Z" fill="white"/>
<path d="M243.743 208.669L261.968 200.059C262.422 199.844 262.772 199.459 262.941 198.987C263.11 198.514 263.085 197.994 262.871 197.54C262.657 197.087 262.271 196.737 261.799 196.568C261.327 196.398 260.807 196.424 260.354 196.638L242.129 205.248C241.675 205.462 241.325 205.848 241.156 206.32C240.987 206.792 241.012 207.313 241.226 207.766C241.44 208.22 241.826 208.57 242.298 208.739C242.77 208.908 243.29 208.883 243.743 208.669Z" fill="white"/>
<path d="M455.264 59.0927C459.7 68.4435 463.92 78.131 467.806 87.8858C490.169 144.021 501.502 201.35 500.576 253.678L502.323 253.491C503.25 200.969 491.885 143.442 469.452 87.1321C465.555 77.3498 461.323 67.6349 456.874 58.2577L455.264 59.0927Z" fill="#F2F2F2"/>
<path d="M456.103 97.6641C460.539 107.015 464.759 116.702 468.645 126.457C491.008 182.592 502.341 239.921 501.415 292.249L503.162 292.063C504.089 239.54 492.724 182.014 470.291 125.703C466.394 115.921 462.162 106.206 457.713 96.8291L456.103 97.6641Z" fill="#F2F2F2"/>
<path d="M503.078 111.692C501.146 108.786 502.29 104.627 505.632 102.402C508.975 100.177 513.251 100.729 515.183 103.634C517.115 106.54 515.972 110.699 512.629 112.924C509.286 115.149 505.01 114.597 503.078 111.692Z" fill="#CCCCCC"/>
<path d="M91.667 216.617C89.735 213.712 90.8786 209.553 94.2213 207.328C97.564 205.103 101.84 205.654 103.772 208.56C105.704 211.465 104.561 215.624 101.218 217.849C97.8752 220.074 93.5991 219.523 91.667 216.617Z" fill="#CCCCCC"/>
</svg>
